<svg width="36" height="36" viewBox="0 0 36 36" fill="none" xmlns="http://www.w3.org/2000/svg">
<rect width="36" height="36" rx="8" fill="#FF004C"/>
<path d="M18.0061 12.9V19.2M29 13.896V22.104C29 23.448 28.2735 24.696 27.0991 25.38L19.907 29.496C18.7325 30.168 17.2796 30.168 16.093 29.496L8.90094 25.38C8.32191 25.0473 7.84142 24.5694 7.50775 23.9943C7.17407 23.4193 6.99896 22.7674 7 22.104V13.896C7 12.552 7.72648 11.304 8.90094 10.62L16.093 6.504C17.2675 5.832 18.7204 5.832 19.907 6.504L27.0991 10.62C28.2735 11.304 29 12.54 29 13.896Z" stroke="white" stroke-width="2" stroke-linecap="round" stroke-linejoin="round"/>
<path d="M18 22.85V23" stroke="white" stroke-width="2" stroke-linecap="round" stroke-linejoin="round"/>
</svg>
